<svg width="40" height="40" viewBox="0 0 40 40" fill="none" xmlns="http://www.w3.org/2000/svg">
<path d="M32.1896 0.264049L4.2988 8.61184C-0.158585 9.94621 -1.48258 15.5467 1.91617 18.6931L23.1805 38.3789C26.5793 41.5254 32.1508 39.8576 33.2103 35.3768L39.8359 7.34324C40.8945 2.86246 36.647 -1.07032 32.1896 0.264049Z" fill="url(#paint0_linear_2374_22)"/>
<path d="M32.1901 0.264049L18.2521 4.43612C7.59355 7.62637 4.4278 21.0185 12.5539 28.5424L23.1801 38.3799C26.5788 41.5263 32.1503 39.8585 33.2099 35.3778L39.8363 7.34324C40.895 2.86246 36.6475 -1.07032 32.1901 0.264049Z" fill="url(#paint1_linear_2374_22)" fill-opacity="0.6"/>
<path d="M32.1893 0.264049C15.3361 5.30835 10.3305 26.4838 23.1793 38.3789C26.5781 41.5254 32.1496 39.8576 33.2091 35.3768L39.8356 7.34324C40.8942 2.86246 36.6467 -1.07032 32.1893 0.264049Z" fill="url(#paint2_linear_2374_22)" fill-opacity="0.6"/>
<defs>
<linearGradient id="paint0_linear_2374_22" x1="-0.000479111" y1="12.878" x2="36.341" y2="20.8716" gradientUnits="userSpaceOnUse">
<stop offset="0.369792" stop-color="#F7578C"/>
<stop offset="1" stop-color="#0095FF"/>
</linearGradient>
<linearGradient id="paint1_linear_2374_22" x1="7.97227" y1="12.8783" x2="37.5608" y2="18.0893" gradientUnits="userSpaceOnUse">
<stop stop-color="white"/>
<stop offset="1" stop-color="#0095FF"/>
</linearGradient>
<linearGradient id="paint2_linear_2374_22" x1="15.9353" y1="12.878" x2="38.4617" y2="15.8588" gradientUnits="userSpaceOnUse">
<stop stop-color="white"/>
<stop offset="1" stop-color="#0095FF"/>
</linearGradient>
</defs>
</svg>
