<svg xmlns="http://www.w3.org/2000/svg" width="136" height="40" viewBox="0 0 136 40" fill="none">
  <path d="M55.5294 31.6C53.8594 31.6 52.3894 31.44 51.1294 31.12C49.8694 30.8 48.6894 30.4 47.6094 29.92V24.73H48.1094C49.1994 25.66 50.4094 26.37 51.7294 26.87C53.0494 27.37 54.3294 27.62 55.5694 27.62C55.8794 27.62 56.2994 27.59 56.8094 27.52C57.3194 27.45 57.7394 27.34 58.0494 27.2C58.4294 27.03 58.7494 26.8 59.0194 26.5C59.2894 26.2 59.4194 25.81 59.4194 25.32C59.4194 24.77 59.2094 24.33 58.7794 23.99C58.3494 23.65 57.8394 23.4 57.2394 23.24C56.4994 23.04 55.6994 22.86 54.8594 22.68C54.0194 22.5 53.2294 22.29 52.4894 22.04C50.7994 21.44 49.5894 20.64 48.8594 19.64C48.1294 18.64 47.7594 17.37 47.7594 15.86C47.7594 13.82 48.6194 12.17 50.3494 10.9C52.0794 9.63 54.2394 9 56.8194 9C58.1194 9 59.4094 9.13 60.6894 9.4C61.9694 9.66 63.1194 10.02 64.1394 10.47V15.45H63.6594C62.8494 14.76 61.8594 14.17 60.6894 13.69C59.5194 13.21 58.3194 12.97 57.0894 12.97C56.6094 12.97 56.1794 13 55.7994 13.07C55.4194 13.14 55.0194 13.27 54.5994 13.47C54.2594 13.63 53.9594 13.86 53.7094 14.17C53.4594 14.48 53.3394 14.82 53.3394 15.2C53.3394 15.76 53.5394 16.2 53.9294 16.53C54.3194 16.86 55.0894 17.15 56.2194 17.42C56.9494 17.59 57.6594 17.75 58.3394 17.9C59.0194 18.05 59.7394 18.27 60.5194 18.54C62.0294 19.09 63.1594 19.82 63.8994 20.74C64.6394 21.66 65.0094 22.88 65.0094 24.39C65.0094 26.56 64.1594 28.3 62.4494 29.62C60.7394 30.94 58.4294 31.6 55.5294 31.6Z" fill="white"/>
  <path d="M75.5398 31.5208C73.4498 31.5208 71.9299 31.0908 70.9799 30.2308C70.0299 29.3708 69.5499 27.9608 69.5499 26.0108V18.3208H67.5898V14.7508H69.5499V10.0508H74.6798V14.7508H79.6199V18.3208H74.6798V24.1508C74.6798 24.7308 74.6798 25.2308 74.6898 25.6608C74.6998 26.0908 74.7798 26.4808 74.9198 26.8208C75.0598 27.1608 75.2998 27.4308 75.6498 27.6308C75.9998 27.8308 76.4998 27.9308 77.1698 27.9308C77.4398 27.9308 77.7998 27.8708 78.2498 27.7508C78.6998 27.6308 78.9998 27.5308 79.1798 27.4308H79.6199V31.0508C79.0599 31.2008 78.4698 31.3108 77.8498 31.3908C77.2298 31.4708 76.4498 31.5208 75.5398 31.5208Z" fill="white"/>
  <path d="M92.5302 29.4593C92.1802 29.7493 91.8602 30.0193 91.5902 30.2493C91.3202 30.4793 90.9402 30.7193 90.4702 30.9493C90.0102 31.1693 89.5602 31.3493 89.1302 31.4593C88.7002 31.5693 88.0902 31.6393 87.3102 31.6393C85.8502 31.6393 84.6502 31.1493 83.6802 30.1793C82.7102 29.2093 82.2402 27.9693 82.2402 26.4893C82.2402 25.2693 82.4802 24.2793 82.9702 23.5293C83.4602 22.7793 84.1602 22.1793 85.0802 21.7393C86.0102 21.2893 87.1202 20.9793 88.4102 20.7993C89.7002 20.6193 91.0902 20.4893 92.5702 20.3893V20.2993C92.5702 19.3893 92.2402 18.7593 91.5702 18.4193C90.9002 18.0793 89.9002 17.8993 88.5602 17.8993C87.9502 17.8993 87.2502 18.0093 86.4402 18.2293C85.6302 18.4493 84.8402 18.7293 84.0702 19.0693H83.6302V15.0993C84.1402 14.9493 84.9602 14.7793 86.0902 14.5793C87.2202 14.3793 88.3702 14.2793 89.5202 14.2793C92.3502 14.2793 94.4202 14.7493 95.7102 15.6893C97.0002 16.6293 97.6502 18.0693 97.6502 19.9993V31.1893H92.5502V29.4593H92.5302ZM92.5302 26.9093V23.4793C91.6602 23.5693 90.9602 23.6393 90.4202 23.7093C89.8802 23.7793 89.3602 23.8993 88.8402 24.0793C88.3902 24.2393 88.0402 24.4693 87.7902 24.7893C87.5402 25.1093 87.4202 25.5293 87.4202 26.0593C87.4202 26.8293 87.6302 27.3593 88.0402 27.6493C88.4502 27.9393 89.0702 28.0793 89.8802 28.0793C90.3302 28.0793 90.7902 27.9793 91.2602 27.7693C91.7302 27.5593 92.1502 27.2793 92.5302 26.9093Z" fill="white"/>
  <path d="M110.219 31.6408C108.859 31.6408 107.619 31.4708 106.489 31.1308C105.359 30.7908 104.379 30.2608 103.549 29.5508C102.729 28.8408 102.089 27.9408 101.629 26.8608C101.169 25.7808 100.939 24.5108 100.939 23.0408C100.939 21.4708 101.189 20.1308 101.689 19.0308C102.189 17.9308 102.859 17.0208 103.709 16.3108C104.529 15.6308 105.489 15.1208 106.599 14.7908C107.709 14.4608 108.859 14.3008 110.059 14.3008C110.969 14.3008 111.879 14.4008 112.779 14.6108C113.679 14.8208 114.599 15.1508 115.519 15.6108V20.0008H114.859C114.649 19.8008 114.399 19.5908 114.109 19.3608C113.819 19.1308 113.489 18.9108 113.139 18.7208C112.769 18.5108 112.349 18.3408 111.879 18.2008C111.409 18.0608 110.889 17.9908 110.309 17.9908C108.999 17.9908 107.989 18.4508 107.269 19.3608C106.549 20.2708 106.189 21.5008 106.189 23.0408C106.189 24.6908 106.569 25.9208 107.339 26.7308C108.109 27.5408 109.119 27.9508 110.389 27.9508C111.029 27.9508 111.599 27.8808 112.089 27.7308C112.579 27.5808 112.999 27.4108 113.349 27.2008C113.689 26.9908 113.979 26.7808 114.229 26.5608C114.479 26.3408 114.679 26.1408 114.859 25.9708H115.519V30.3608C115.229 30.4908 114.889 30.6308 114.499 30.8008C114.109 30.9708 113.719 31.1008 113.319 31.2108C112.819 31.3508 112.359 31.4508 111.919 31.5208C111.479 31.5908 110.929 31.6408 110.219 31.6408Z" fill="white"/>
  <path d="M135.51 22.9802C135.51 25.6902 134.77 27.8202 133.29 29.3702C131.81 30.9202 129.72 31.7102 127.01 31.7102C124.32 31.7102 122.24 30.9302 120.75 29.3702C119.26 27.8102 118.52 25.6802 118.52 22.9802C118.52 20.2502 119.26 18.1002 120.75 16.5602C122.24 15.0202 124.33 14.2402 127.01 14.2402C129.71 14.2402 131.8 15.0202 133.28 16.5802C134.76 18.1402 135.51 20.2702 135.51 22.9802ZM130.25 23.0102C130.25 22.0302 130.17 21.2202 130.01 20.5702C129.85 19.9202 129.63 19.4002 129.34 19.0102C129.04 18.6002 128.7 18.3102 128.31 18.1502C127.92 17.9902 127.49 17.9102 127.01 17.9102C126.55 17.9102 126.14 17.9802 125.76 18.1202C125.38 18.2602 125.05 18.5302 124.73 18.9302C124.44 19.3102 124.2 19.8302 124.03 20.5002C123.86 21.1702 123.77 22.0002 123.77 23.0002C123.77 24.0002 123.85 24.8202 124.02 25.4402C124.19 26.0602 124.4 26.5602 124.66 26.9302C124.93 27.3102 125.28 27.5902 125.69 27.7602C126.1 27.9302 126.55 28.0202 127.05 28.0202C127.46 28.0202 127.88 27.9302 128.3 27.7602C128.72 27.5902 129.06 27.3202 129.32 26.9702C129.62 26.5502 129.85 26.0402 130.01 25.4502C130.17 24.8602 130.25 24.0602 130.25 23.0102Z" fill="white"/>
  <path d="M32.1896 0.264049L4.2988 8.61184C-0.158585 9.94621 -1.48258 15.5467 1.91617 18.6931L23.1805 38.3789C26.5793 41.5254 32.1508 39.8576 33.2103 35.3768L39.8359 7.34324C40.8945 2.86246 36.647 -1.07032 32.1896 0.264049Z" fill="url(#paint0_linear_2374_22)"/>
  <path d="M32.1901 0.264049L18.2521 4.43612C7.59355 7.62637 4.4278 21.0185 12.5539 28.5424L23.1801 38.3799C26.5788 41.5263 32.1503 39.8585 33.2099 35.3778L39.8363 7.34324C40.895 2.86246 36.6475 -1.07032 32.1901 0.264049Z" fill="url(#paint1_linear_2374_22)" fill-opacity="0.6"/>
  <path d="M32.1893 0.264049C15.3361 5.30835 10.3305 26.4838 23.1793 38.3789C26.5781 41.5254 32.1496 39.8576 33.2091 35.3768L39.8356 7.34324C40.8942 2.86246 36.6467 -1.07032 32.1893 0.264049Z" fill="url(#paint2_linear_2374_22)" fill-opacity="0.6"/>
  <defs>
    <linearGradient id="paint0_linear_2374_22" x1="-0.000479111" y1="12.878" x2="36.341" y2="20.8716" gradientUnits="userSpaceOnUse">
      <stop offset="0.369792" stop-color="#F7578C"/>
      <stop offset="1" stop-color="#0095FF"/>
    </linearGradient>
    <linearGradient id="paint1_linear_2374_22" x1="7.97227" y1="12.8783" x2="37.5608" y2="18.0893" gradientUnits="userSpaceOnUse">
      <stop stop-color="white"/>
      <stop offset="1" stop-color="#0095FF"/>
    </linearGradient>
    <linearGradient id="paint2_linear_2374_22" x1="15.9353" y1="12.878" x2="38.4617" y2="15.8588" gradientUnits="userSpaceOnUse">
      <stop stop-color="white"/>
      <stop offset="1" stop-color="#0095FF"/>
    </linearGradient>
  </defs>
</svg>