<svg xmlns="http://www.w3.org/2000/svg" width="79" height="64" viewBox="0 0 79 64" fill="none">
  <path d="M2 32C3.98912 32 5.89678 31.2098 7.3033 29.8033C8.70982 28.3968 9.5 26.4891 9.5 24.5V9.5C9.5 7.51088 10.2902 5.60322 11.6967 4.1967C13.1032 2.79018 15.0109 2 17 2H62C63.9891 2 65.8968 2.79018 67.3033 4.1967C68.7098 5.60322 69.5 7.51088 69.5 9.5V24.5C69.5 26.4891 70.2902 28.3968 71.6967 29.8033C73.1032 31.2098 75.0109 32 77 32" stroke="white" stroke-width="3" stroke-linecap="round" stroke-linejoin="round"/>
  <path d="M2 32C3.98912 32 5.89678 32.7902 7.3033 34.1967C8.70982 35.6032 9.5 37.5109 9.5 39.5V54.5C9.5 56.4891 10.2902 58.3968 11.6967 59.8033C13.1032 61.2098 15.0109 62 17 62H62C63.9891 62 65.8968 61.2098 67.3033 59.8033C68.7098 58.3968 69.5 56.4891 69.5 54.5V39.5C69.5 37.5109 70.2902 35.6032 71.6967 34.1967C73.1032 32.7902 75.0109 32 77 32" stroke="white" stroke-width="3" stroke-linecap="round" stroke-linejoin="round"/>
  <path d="M28.25 47V17H41.375C43.3641 17 45.2718 17.7902 46.6783 19.1967C48.0848 20.6032 48.875 22.5109 48.875 24.5C48.875 26.4891 48.0848 28.3968 46.6783 29.8033C45.2718 31.2098 43.3641 32 41.375 32H28.25H43.25C45.2391 32 47.1468 32.7902 48.5533 34.1967C49.9598 35.6032 50.75 37.5109 50.75 39.5C50.75 41.4891 49.9598 43.3968 48.5533 44.8033C47.1468 46.2098 45.2391 47 43.25 47H28.25Z" stroke="white" stroke-width="3" stroke-linecap="round" stroke-linejoin="round"/>
</svg>