<svg xmlns="http://www.w3.org/2000/svg" width="57" height="60" viewBox="0 0 57 60" fill="none">
  <path fill-rule="evenodd" clip-rule="evenodd" d="M32.4219 21.1719C32.5961 20.9973 32.803 20.8588 33.0308 20.7643C33.2586 20.6697 33.5028 20.6211 33.7494 20.6211C33.9961 20.6211 34.2403 20.6697 34.4681 20.7643C34.6959 20.8588 34.9028 20.9973 35.0769 21.1719L42.5769 28.6719C42.7516 28.8461 42.8901 29.053 42.9846 29.2808C43.0791 29.5086 43.1278 29.7528 43.1278 29.9994C43.1278 30.2461 43.0791 30.4903 42.9846 30.7181C42.8901 30.9459 42.7516 31.1528 42.5769 31.3269L35.0769 38.8269C34.7249 39.179 34.2474 39.3768 33.7494 39.3768C33.2515 39.3768 32.774 39.179 32.4219 38.8269C32.0699 38.4749 31.8721 37.9974 31.8721 37.4994C31.8721 37.0015 32.0699 36.524 32.4219 36.1719L38.5982 29.9994L32.4219 23.8269C32.2473 23.6528 32.1088 23.4459 32.0143 23.2181C31.9197 22.9903 31.8711 22.7461 31.8711 22.4994C31.8711 22.2528 31.9197 22.0086 32.0143 21.7808C32.1088 21.553 32.2473 21.3461 32.4219 21.1719ZM27.5769 21.1719C27.4028 20.9973 27.1959 20.8588 26.9681 20.7643C26.7403 20.6697 26.4961 20.6211 26.2494 20.6211C26.0028 20.6211 25.7586 20.6697 25.5308 20.7643C25.303 20.8588 25.0961 20.9973 24.9219 21.1719L17.4219 28.6719C17.2473 28.8461 17.1088 29.053 17.0143 29.2808C16.9197 29.5086 16.8711 29.7528 16.8711 29.9994C16.8711 30.2461 16.9197 30.4903 17.0143 30.7181C17.1088 30.9459 17.2473 31.1528 17.4219 31.3269L24.9219 38.8269C25.274 39.179 25.7515 39.3768 26.2494 39.3768C26.7474 39.3768 27.2249 39.179 27.5769 38.8269C27.929 38.4749 28.1268 37.9974 28.1268 37.4994C28.1268 37.0015 27.929 36.524 27.5769 36.1719L21.4007 29.9994L27.5769 23.8269C27.7516 23.6528 27.8901 23.4459 27.9846 23.2181C28.0791 22.9903 28.1278 22.7461 28.1278 22.4994C28.1278 22.2528 28.0791 22.0086 27.9846 21.7808C27.8901 21.553 27.7516 21.3461 27.5769 21.1719Z" fill="white"/>
  <path d="M11.25 0H48.75C50.7391 0 52.6468 0.790176 54.0533 2.1967C55.4598 3.60322 56.25 5.51088 56.25 7.5V52.5C56.25 54.4891 55.4598 56.3968 54.0533 57.8033C52.6468 59.2098 50.7391 60 48.75 60H11.25C9.26088 60 7.35322 59.2098 5.9467 57.8033C4.54018 56.3968 3.75 54.4891 3.75 52.5V48.75H7.5V52.5C7.5 53.4946 7.89509 54.4484 8.59835 55.1516C9.30161 55.8549 10.2554 56.25 11.25 56.25H48.75C49.7446 56.25 50.6984 55.8549 51.4016 55.1516C52.1049 54.4484 52.5 53.4946 52.5 52.5V7.5C52.5 6.50544 52.1049 5.55161 51.4016 4.84835C50.6984 4.14509 49.7446 3.75 48.75 3.75H11.25C10.2554 3.75 9.30161 4.14509 8.59835 4.84835C7.89509 5.55161 7.5 6.50544 7.5 7.5V11.25H3.75V7.5C3.75 5.51088 4.54018 3.60322 5.9467 2.1967C7.35322 0.790176 9.26088 0 11.25 0Z" fill="white"/>
  <path d="M3.75 18.75V16.875C3.75 16.3777 3.94754 15.9008 4.29917 15.5492C4.65081 15.1975 5.12772 15 5.625 15C6.12228 15 6.59919 15.1975 6.95083 15.5492C7.30246 15.9008 7.5 16.3777 7.5 16.875V18.75H9.375C9.87228 18.75 10.3492 18.9475 10.7008 19.2992C11.0525 19.6508 11.25 20.1277 11.25 20.625C11.25 21.1223 11.0525 21.5992 10.7008 21.9508C10.3492 22.3025 9.87228 22.5 9.375 22.5H1.875C1.37772 22.5 0.900806 22.3025 0.549175 21.9508C0.197544 21.5992 0 21.1223 0 20.625C0 20.1277 0.197544 19.6508 0.549175 19.2992C0.900806 18.9475 1.37772 18.75 1.875 18.75H3.75ZM3.75 30V28.125C3.75 27.6277 3.94754 27.1508 4.29917 26.7992C4.65081 26.4475 5.12772 26.25 5.625 26.25C6.12228 26.25 6.59919 26.4475 6.95083 26.7992C7.30246 27.1508 7.5 27.6277 7.5 28.125V30H9.375C9.87228 30 10.3492 30.1975 10.7008 30.5492C11.0525 30.9008 11.25 31.3777 11.25 31.875C11.25 32.3723 11.0525 32.8492 10.7008 33.2008C10.3492 33.5525 9.87228 33.75 9.375 33.75H1.875C1.37772 33.75 0.900806 33.5525 0.549175 33.2008C0.197544 32.8492 0 32.3723 0 31.875C0 31.3777 0.197544 30.9008 0.549175 30.5492C0.900806 30.1975 1.37772 30 1.875 30H3.75ZM3.75 41.25V39.375C3.75 38.8777 3.94754 38.4008 4.29917 38.0492C4.65081 37.6975 5.12772 37.5 5.625 37.5C6.12228 37.5 6.59919 37.6975 6.95083 38.0492C7.30246 38.4008 7.5 38.8777 7.5 39.375V41.25H9.375C9.87228 41.25 10.3492 41.4475 10.7008 41.7992C11.0525 42.1508 11.25 42.6277 11.25 43.125C11.25 43.6223 11.0525 44.0992 10.7008 44.4508C10.3492 44.8025 9.87228 45 9.375 45H1.875C1.37772 45 0.900806 44.8025 0.549175 44.4508C0.197544 44.0992 0 43.6223 0 43.125C0 42.6277 0.197544 42.1508 0.549175 41.7992C0.900806 41.4475 1.37772 41.25 1.875 41.25H3.75Z" fill="white"/>
</svg>