<svg xmlns="http://www.w3.org/2000/svg" width="60" height="60" viewBox="0 0 60 60" fill="none">
  <path d="M30 60C13.4588 60 0 46.5412 0 30C0 13.4588 13.4588 0 30 0C46.5412 0 60 13.4588 60 30C60 46.5412 46.5412 60 30 60ZM30 2.5C14.8363 2.5 2.5 14.8363 2.5 30C2.5 45.1637 14.8363 57.5 30 57.5C45.1637 57.5 57.5 45.1637 57.5 30C57.5 14.8363 45.1637 2.5 30 2.5Z" fill="white"/>
  <path d="M30 35C27.2425 35 25 32.7575 25 30C25 27.2425 27.2425 25 30 25C32.7575 25 35 27.2425 35 30C35 32.7575 32.7575 35 30 35ZM30 27.5C28.6212 27.5 27.5 28.6212 27.5 30C27.5 31.3788 28.6212 32.5 30 32.5C31.3788 32.5 32.5 31.3788 32.5 30C32.5 28.6212 31.3788 27.5 30 27.5Z" fill="white"/>
  <path d="M32.6527 28.5987C32.3327 28.5987 32.0127 28.4762 31.7689 28.2324C31.2802 27.7437 31.2802 26.9537 31.7689 26.4649L44.1427 14.0912C44.6314 13.6024 45.4214 13.6024 45.9102 14.0912C46.3989 14.5799 46.3989 15.3699 45.9102 15.8587L33.5364 28.2324C33.2914 28.4762 32.9714 28.5987 32.6527 28.5987Z" fill="white"/>
  <path d="M11.25 31.25H6.25C5.56 31.25 5 30.6912 5 30C5 29.3088 5.56 28.75 6.25 28.75H11.25C11.94 28.75 12.5 29.3088 12.5 30C12.5 30.6912 11.94 31.25 11.25 31.25Z" fill="white"/>
  <path d="M8.05887 40.3378C7.56762 40.3378 7.10261 40.0478 6.90386 39.5666C6.64011 38.9278 6.94262 38.1966 7.58137 37.9328L12.2014 36.0203C12.8376 35.7541 13.5701 36.0578 13.8339 36.6966C14.0976 37.3353 13.7951 38.0666 13.1564 38.3303L8.53637 40.2428C8.38012 40.3066 8.21762 40.3378 8.05887 40.3378Z" fill="white"/>
  <path d="M51.9401 40.3391C51.7813 40.3391 51.6188 40.3091 51.4626 40.2441L46.8438 38.3303C46.2063 38.0653 45.9038 37.3341 46.1676 36.6966C46.4313 36.0578 47.1638 35.7541 47.8013 36.0203L52.4201 37.9341C53.0576 38.1991 53.3601 38.9303 53.0963 39.5678C52.8951 40.0491 52.4301 40.3391 51.9401 40.3391Z" fill="white"/>
  <path d="M53.748 31.2512L48.748 31.25C48.058 31.25 47.498 30.69 47.498 30C47.498 29.3088 48.058 28.75 48.748 28.75L53.748 28.7512C54.4393 28.7512 54.998 29.3112 54.998 30.0012C54.998 30.6925 54.438 31.2512 53.748 31.2512Z" fill="white"/>
  <path d="M47.3225 24.0756C46.8313 24.0756 46.3663 23.7856 46.1675 23.3044C45.9038 22.6656 46.2063 21.9344 46.845 21.6706L51.4638 19.7594C52.1 19.4956 52.8325 19.7981 53.0963 20.4356C53.36 21.0744 53.0575 21.8056 52.4188 22.0694L47.8 23.9806C47.6438 24.0444 47.4825 24.0756 47.3225 24.0756Z" fill="white"/>
  <path d="M37.1748 13.9283C37.0161 13.9283 36.8536 13.8983 36.6973 13.8333C36.0598 13.5683 35.7573 12.8371 36.0211 12.1996L37.9348 7.58209C38.1986 6.94459 38.9298 6.64209 39.5686 6.90584C40.2061 7.17084 40.5086 7.90209 40.2448 8.53959L38.3311 13.1571C38.1298 13.6371 37.6648 13.9283 37.1748 13.9283Z" fill="white"/>
  <path d="M30 12.5007C29.3088 12.5007 28.75 11.9407 28.75 11.2507L28.7512 6.25195C28.7512 5.5607 29.3112 5.00195 30.0012 5.00195C30.6925 5.00195 31.2512 5.56195 31.2512 6.25195L31.25 11.2507C31.25 11.942 30.69 12.5007 30 12.5007Z" fill="white"/>
  <path d="M22.8256 13.9282C22.3343 13.9282 21.8693 13.6382 21.6706 13.1569L19.7593 8.53816C19.4956 7.89941 19.7981 7.16816 20.4368 6.90441C21.0743 6.63941 21.8068 6.94316 22.0693 7.58066L23.9806 12.1994C24.2443 12.8382 23.9418 13.5694 23.3031 13.8332C23.1468 13.8969 22.9856 13.9282 22.8256 13.9282Z" fill="white"/>
  <path d="M16.7414 17.9936C16.4214 17.9936 16.1014 17.8711 15.8564 17.6273L12.3227 14.0911C11.8352 13.6023 11.8352 12.8111 12.3227 12.3236C12.8114 11.8348 13.6027 11.8348 14.0914 12.3236L17.6252 15.8598C18.1127 16.3486 18.1127 17.1398 17.6252 17.6273C17.3802 17.8711 17.0602 17.9936 16.7414 17.9936Z" fill="white"/>
  <path d="M12.6776 24.076C12.5189 24.076 12.3564 24.046 12.1989 23.981L7.58013 22.066C6.94263 21.801 6.64013 21.0697 6.90388 20.4322C7.16763 19.7947 7.89763 19.491 8.53763 19.756L13.1564 21.671C13.7939 21.936 14.0964 22.6672 13.8326 23.3047C13.6326 23.7847 13.1676 24.076 12.6776 24.076Z" fill="white"/>
  <path d="M41.25 50H18.75C18.06 50 17.5 49.4412 17.5 48.75V41.25C17.5 40.5588 18.06 40 18.75 40H41.25C41.94 40 42.5 40.5588 42.5 41.25V48.75C42.5 49.4412 41.94 50 41.25 50ZM20 47.5H40V42.5H20V47.5Z" fill="white"/>
</svg>