<svg xmlns="http://www.w3.org/2000/svg" width="66" height="60" viewBox="0 0 66 60" fill="none">
  <path d="M32.9426 35.809C36.1772 35.809 38.7993 33.1869 38.7993 29.9524C38.7993 26.7178 36.1772 24.0957 32.9426 24.0957C29.7081 24.0957 27.0859 26.7178 27.0859 29.9524C27.0859 33.1869 29.7081 35.809 32.9426 35.809Z" fill="white"/>
  <path d="M32.9415 43.369C24.7165 43.369 17.5299 42.4007 12.1515 40.5573C8.6632 39.3673 5.69987 37.7807 3.5882 35.9723C1.3482 34.059 0.158203 31.9707 0.158203 29.9523C0.158203 26.079 4.40487 22.2873 11.5332 19.814C17.3665 17.784 24.9732 16.6523 32.9299 16.6523C40.7465 16.6523 48.2482 17.749 54.0465 19.7557C57.4415 20.9223 60.2999 22.439 62.3299 24.119C64.5349 25.9623 65.7015 27.9807 65.7015 29.9523C65.7015 33.9773 60.9532 38.049 53.2999 40.5807C47.8865 42.3773 40.6532 43.369 32.9415 43.369ZM32.9415 19.4523C25.3932 19.4523 17.9265 20.549 12.4665 22.4507C5.90987 24.7373 2.96987 27.864 2.96987 29.9523C2.96987 32.1223 6.13154 35.5407 13.0615 37.909C18.1482 39.6473 25.0315 40.569 32.9415 40.569C40.3615 40.569 47.2799 39.6357 52.4249 37.9207C59.6232 35.529 62.9132 32.1107 62.9132 29.9523C62.9132 28.844 62.0732 27.5373 60.5449 26.2657C58.7832 24.7957 56.2165 23.454 53.1482 22.3923C47.6299 20.5023 40.4549 19.4523 32.9415 19.4523Z" fill="white"/>
  <path d="M19.654 59.1426C18.464 59.1426 17.414 58.886 16.5274 58.3726C13.179 56.436 12.0124 50.8593 13.424 43.451C14.579 37.3726 17.4024 30.2326 21.3807 23.3376C25.289 16.571 29.979 10.621 34.6107 6.59597C37.3174 4.2393 40.059 2.51264 42.5324 1.60264C45.2274 0.61097 47.5607 0.61097 49.264 1.59097C52.7524 3.59764 53.9074 9.75764 52.274 17.6443C51.119 23.2443 48.3657 29.9993 44.5157 36.6843C40.409 43.801 35.9757 49.541 31.694 53.286C28.9174 55.7126 26.059 57.486 23.4457 58.4076C22.0807 58.8976 20.7974 59.1426 19.654 59.1426ZM22.5824 24.0376L23.7957 24.7376C20.0274 31.271 17.239 38.2826 16.1657 43.976C14.8707 50.801 16.119 54.9076 17.9157 55.946C18.359 56.2026 18.9424 56.3426 19.654 56.3426C21.9757 56.3426 25.6274 54.8726 29.8507 51.186C33.899 47.651 38.134 42.1443 42.089 35.296C45.799 28.8676 48.4357 22.4043 49.5324 17.096C51.0607 9.6643 49.7424 5.1143 47.864 4.0293C46.9074 3.48097 45.3557 3.55097 43.489 4.2393C41.3307 5.03264 38.8924 6.5843 36.4424 8.7193C32.044 12.546 27.5524 18.2393 23.7957 24.7493L22.5824 24.0376Z" fill="white"/>
  <path d="M46.2298 59.1779C43.0565 59.1779 39.0315 57.2645 34.8315 53.6479C30.1415 49.6112 25.3698 43.6029 21.3798 36.7079C17.4598 29.9412 14.6598 22.9062 13.4815 16.8745C12.7932 13.3512 12.6648 10.1195 13.1082 7.51785C13.5982 4.68285 14.7532 2.66452 16.4682 1.67285C19.9448 -0.345481 25.8598 1.73119 31.8798 7.08619C36.1498 10.8779 40.6298 16.6412 44.4915 23.3145C48.6098 30.4312 51.3748 37.1395 52.4715 42.7162C53.1831 46.3329 53.2998 49.6929 52.7981 52.4229C52.2615 55.3279 51.0481 57.3929 49.2981 58.4079C48.4231 58.9212 47.3848 59.1779 46.2298 59.1779ZM23.8065 35.3079C27.5865 41.8412 32.2765 47.7562 36.6631 51.5245C41.9248 56.0512 46.1015 57.0312 47.9098 55.9812C49.7881 54.8962 51.1648 50.4512 49.7415 43.2645C48.6915 37.9912 46.0431 31.5745 42.0765 24.7262C38.3548 18.2979 34.0731 12.7795 30.0248 9.18619C24.3548 4.14619 19.7581 3.01452 17.8798 4.09952C16.9231 4.64785 16.2115 6.03619 15.8732 7.99619C15.4882 10.2595 15.6048 13.1529 16.2348 16.3379C17.3548 22.0662 20.0382 28.7979 23.8065 35.3079Z" fill="white"/>
</svg>