<svg xmlns="http://www.w3.org/2000/svg" width="71" height="60" viewBox="0 0 71 60" fill="none">
  <path d="M12.8855 24.2871H8.86586C8.49584 24.2871 8.14098 24.4341 7.87933 24.6957C7.61769 24.9574 7.4707 25.3122 7.4707 25.6823C7.4707 26.0523 7.61769 26.4071 7.87933 26.6688C8.14098 26.9304 8.49584 27.0774 8.86586 27.0774H12.8855C13.2555 27.0774 13.6104 26.9304 13.872 26.6688C14.1337 26.4071 14.2807 26.0523 14.2807 25.6823C14.2807 25.3122 14.1337 24.9574 13.872 24.6957C13.6104 24.4341 13.2555 24.2871 12.8855 24.2871Z" fill="white"/>
  <path d="M66.1407 4.79134H21.751V4.78562C21.7495 3.51682 21.2448 2.30041 20.3477 1.40324C19.4505 0.506079 18.2341 0.00142625 16.9653 0H4.7857C3.51691 0.00142625 2.30049 0.506079 1.40331 1.40324C0.506124 2.30041 0.00144937 3.51682 0 4.78562V27.0052C0.00144011 28.274 0.50611 29.4904 1.40329 30.3876C2.30047 31.2848 3.5169 31.7894 4.7857 31.7909H9.48039V43.6041C9.48169 44.7609 9.94179 45.8699 10.7598 46.6878C11.5777 47.5058 12.6867 47.9659 13.8435 47.9672H35.6419C35.686 49.5285 35.5476 51.0897 35.2294 52.6189C32.2414 53.5427 29.5833 55.3089 27.5741 57.7057C27.4028 57.909 27.2931 58.157 27.258 58.4205C27.2228 58.684 27.2637 58.952 27.3758 59.1931C27.4879 59.4341 27.6665 59.6382 27.8906 59.7811C28.1148 59.9241 28.3751 60 28.6409 60H51.5211C51.787 60 52.0473 59.9241 52.2714 59.7811C52.4955 59.6382 52.6742 59.4341 52.7862 59.1931C52.8983 58.952 52.9392 58.684 52.9041 58.4205C52.8689 58.157 52.7593 57.909 52.5879 57.7057C50.5259 55.2676 47.8002 53.4809 44.7419 52.5627C44.4073 51.0543 44.2499 49.512 44.273 47.9671H66.1407C67.2975 47.9658 68.4065 47.5058 69.2245 46.6878C70.0424 45.8698 70.5025 44.7608 70.5038 43.6041V9.1545C70.5025 7.99773 70.0424 6.88871 69.2245 6.07074C68.4065 5.25277 67.2975 4.79265 66.1407 4.79134ZM2.79034 4.78562C2.79095 4.25661 3.00138 3.74944 3.37545 3.37538C3.74952 3.00132 4.25669 2.79091 4.7857 2.79031H16.9653C17.4943 2.7909 18.0015 3.0013 18.3755 3.37537C18.7496 3.74943 18.96 4.2566 18.9607 4.78562V15.3117C17.0858 15.2484 15.2089 15.2896 13.3386 15.4352C9.76593 15.7022 6.23078 16.3404 2.79031 17.3395L2.79034 4.78562ZM4.7857 29.0005C4.25667 28.9999 3.74948 28.7895 3.3754 28.4154C3.00132 28.0413 2.7909 27.5341 2.79031 27.0051V20.2673C3.45435 20.0416 10.2748 17.8126 18.9607 18.1107V27.0051C18.9601 27.5341 18.7496 28.0413 18.3756 28.4154C18.0015 28.7895 17.4943 28.9999 16.9653 29.0005H4.7857ZM59.1496 44.5762C58.8519 44.5762 58.5609 44.4879 58.3134 44.3225C58.0659 44.1572 57.873 43.9221 57.7591 43.6471C57.6452 43.3721 57.6154 43.0695 57.6735 42.7776C57.7315 42.4856 57.8749 42.2174 58.0854 42.007C58.2958 41.7965 58.564 41.6531 58.856 41.5951C59.1479 41.537 59.4505 41.5668 59.7255 41.6807C60.0005 41.7946 60.2356 41.9875 60.4009 42.235C60.5663 42.4825 60.6546 42.7735 60.6546 43.0712C60.6546 43.4703 60.496 43.8531 60.2138 44.1354C59.9315 44.4176 59.5487 44.5762 59.1496 44.5762ZM64.337 44.5762C64.0394 44.5762 63.7484 44.4879 63.5009 44.3225C63.2534 44.1572 63.0605 43.9221 62.9466 43.6471C62.8327 43.3721 62.8028 43.0695 62.8609 42.7776C62.919 42.4856 63.0623 42.2174 63.2728 42.007C63.4833 41.7965 63.7515 41.6531 64.0434 41.5951C64.3354 41.537 64.638 41.5668 64.913 41.6807C65.188 41.7946 65.423 41.9875 65.5884 42.235C65.7538 42.4825 65.842 42.7735 65.842 43.0712C65.842 43.4703 65.6835 43.8531 65.4012 44.1354C65.119 44.4176 64.7362 44.5762 64.337 44.5762ZM67.7135 38.2002H12.2707V31.7908H16.9653C18.2341 31.7894 19.4505 31.2847 20.3477 30.3875C21.2449 29.4903 21.7495 28.2739 21.751 27.0051V18.2936C26.3736 18.7434 31.366 19.9794 36.153 22.6124C42.9845 26.3687 50.5416 28.6176 58.3154 29.2076C59.668 29.3064 60.9091 29.3446 62.0204 29.3445C63.925 29.3595 65.828 29.232 67.7135 28.9633V38.2002ZM67.7135 26.1417C67.6588 26.1452 67.6043 26.152 67.5504 26.1618C67.5145 26.1685 63.9072 26.8294 58.4154 26.417C51.0779 25.8444 43.9468 23.7138 37.4978 20.1675C32.1774 17.2411 26.6586 15.945 21.751 15.4887V7.58164H66.1407C66.5577 7.58213 66.9575 7.748 67.2523 8.04286C67.5472 8.33773 67.7131 8.73751 67.7135 9.1545V26.1417Z" fill="white"/>
</svg>