<svg xmlns="http://www.w3.org/2000/svg" width="81" height="60" viewBox="0 0 81 60" fill="none">
  <path d="M68.8849 34.4866C66.0851 34.4989 63.6604 35.174 61.6356 36.174C60.8981 34.6863 60.1355 33.3865 60.0104 32.4117C59.8608 31.2741 59.698 30.5994 59.8732 29.2495C60.0484 27.8993 60.8355 25.9869 60.8231 25.8497C60.8108 25.7123 60.6481 25.0247 59.0358 25.0121C57.4235 24.9998 56.0362 25.3245 55.8736 25.7495C55.7108 26.1745 55.3987 27.1371 55.2112 28.1369C54.9237 29.5993 51.9862 34.824 50.3238 37.5488C49.7739 36.4866 49.3116 35.5489 49.2114 34.799C49.0614 33.6614 48.899 32.9866 49.074 31.6368C49.249 30.2866 50.0363 28.3742 50.0237 28.237C50.0112 28.0995 49.8487 27.4119 48.2366 27.3994C46.6241 27.3871 45.237 27.7118 45.0742 28.1369C44.9117 28.5617 44.7367 29.5617 44.4118 30.5246C44.087 31.4865 40.1746 40.1858 39.1497 42.4483C38.6246 43.598 38.1749 44.523 37.8498 45.1482C37.8 45.248 37.7625 45.3107 37.7374 45.3608C37.7748 45.2983 37.8 45.2355 37.8 45.2609C37.525 45.7981 37.3624 46.0981 37.3624 46.0981V46.1105C37.1498 46.5104 36.9124 46.8727 36.8 46.8727C36.7249 46.8727 36.5626 45.8231 36.8376 44.3856C37.4248 41.3608 38.8122 36.6616 38.7997 36.4988C38.7872 36.4113 39.062 35.599 37.8872 35.1613C36.7499 34.7489 36.3373 35.4365 36.2375 35.4365C36.1376 35.4365 36.0625 35.6866 36.0625 35.6866C36.0625 35.6866 37.325 30.387 33.6376 30.387C31.3379 30.387 28.1383 32.912 26.5635 35.1992C25.576 35.7367 23.4385 36.8991 21.1889 38.1363C20.3264 38.6114 19.4389 39.0986 18.6016 39.5613C18.5391 39.4985 18.489 39.4361 18.4266 39.3736C13.9519 34.5993 5.69009 31.2245 6.04024 24.8123C6.16514 22.4749 6.97765 16.3382 21.9264 8.88871C34.1755 2.78922 43.9745 4.46417 45.6622 8.18874C48.0866 13.5009 40.4247 23.3876 27.701 24.8123C22.8513 25.3498 20.3017 23.475 19.6642 22.7752C19.0016 22.0378 18.9016 22.0001 18.6517 22.1376C18.2391 22.3626 18.5017 23.0126 18.6517 23.4C19.0267 24.3873 20.5889 26.1372 23.2514 27.0122C25.5884 27.7746 31.2756 28.1997 38.1499 25.5373C45.8742 22.5624 51.8864 14.2755 50.1239 7.33883C48.3243 0.289587 36.6377 -2.02288 25.5762 1.90174C18.9893 4.23908 11.8649 7.91391 6.74021 12.7008C0.653243 18.4005 -0.321562 23.3624 0.0781704 25.4374C1.50315 32.7991 11.6522 37.5988 15.7144 41.1484C15.5143 41.261 15.3268 41.361 15.152 41.461C13.1147 42.4732 5.37785 46.5229 3.44041 50.798C1.25336 55.6475 3.80275 59.122 5.47769 59.5972C10.7022 61.0469 16.0518 58.4347 18.9267 54.1474C21.8012 49.8605 21.4514 44.2609 20.1266 41.711C20.1139 41.6736 20.089 41.6489 20.0766 41.611C20.6014 41.2987 21.1388 40.9861 21.6764 40.6737C22.7137 40.0613 23.7262 39.4985 24.6136 39.0115C24.1135 40.3615 23.7511 41.9856 23.5636 44.3359C23.3387 47.0855 24.4761 50.6477 25.951 52.0477C26.6007 52.6601 27.3882 52.6728 27.8758 52.6728C29.6006 52.6728 30.3754 51.2477 31.2378 49.5479C32.3003 47.4727 33.2377 45.0604 33.2377 45.0604C33.2377 45.0604 32.0629 51.5853 35.275 51.5853C36.4499 51.5853 37.6251 50.0728 38.1497 49.2979V49.3103C38.1497 49.3103 38.1749 49.2605 38.2373 49.1607C38.3622 48.973 38.4247 48.8604 38.4247 48.8604V48.8227C38.8996 48.0103 39.9372 46.1479 41.4992 43.0733C43.5243 39.0985 45.4614 34.1362 45.4614 34.1362C45.4614 34.1362 45.6364 35.349 46.2367 37.3612C46.5865 38.5486 47.3239 39.8485 47.9113 41.111C47.4366 41.7609 47.1489 42.1359 47.1489 42.1359C47.1489 42.1359 47.1489 42.1483 47.1611 42.1608C46.7862 42.6611 46.3614 43.1986 45.9239 43.7236C44.324 45.6232 42.4241 47.7983 42.1743 48.4231C41.8741 49.1607 41.9492 49.7102 42.5243 50.1355C42.9491 50.4606 43.6991 50.5103 44.4864 50.4481C45.9239 50.3477 46.9363 49.998 47.4237 49.7726C48.1985 49.4981 49.0987 49.0603 49.9486 48.448C51.511 47.2984 52.4611 45.6485 52.3732 43.4736C52.3233 42.2737 51.9356 41.0736 51.4607 39.9491C51.5983 39.7489 51.7484 39.5361 51.8858 39.3241C54.3609 35.7113 56.2732 31.7497 56.2732 31.7497C56.2732 31.7497 56.4482 32.9617 57.0479 34.9741C57.348 35.9867 57.9354 37.0991 58.4727 38.1863C56.1479 40.0738 54.7108 42.2614 54.2107 43.6983C53.2856 46.3608 54.0106 47.5603 55.373 47.8359C55.9854 47.9608 56.8604 47.6731 57.5105 47.398C58.3228 47.123 59.2978 46.6856 60.2101 46.0106C61.7725 44.861 63.285 43.2483 63.1852 41.0611C63.1474 40.0736 62.8726 39.0863 62.5101 38.1363C64.4722 37.3117 67.0225 36.8613 70.272 37.2365C77.2339 38.0489 78.5961 42.3984 78.3336 44.2106C78.0715 46.0357 76.6091 47.0357 76.1215 47.3356C75.6338 47.6357 75.484 47.7482 75.5217 47.9731C75.584 48.2981 75.8089 48.2857 76.2214 48.2104C76.7966 48.1105 79.8711 46.7355 80.0084 43.3732C80.2088 39.1235 76.1219 34.4492 68.8849 34.4866ZM15.227 52.5725C12.9274 55.0848 9.70255 56.0347 8.31531 55.2348C6.82788 54.3727 7.4153 50.6728 10.2526 47.9978C11.9774 46.3731 14.2022 44.8734 15.6771 43.9485C16.0146 43.7486 16.5022 43.4486 17.1021 43.086C17.2021 43.0239 17.2521 42.9987 17.2521 42.9987C17.3644 42.9234 17.4895 42.8611 17.6146 42.786C18.6517 46.5857 17.6518 49.9352 15.227 52.5725ZM32.0257 41.1484C31.2257 43.1106 29.5382 48.1104 28.5136 47.8479C27.6387 47.6228 27.101 43.8107 28.3387 40.0613C28.9635 38.1737 30.2883 35.9241 31.0759 35.0493C32.3381 33.6367 33.7255 33.1867 34.0506 33.7492C34.4879 34.4866 32.5254 39.9237 32.0257 41.1484ZM45.8992 47.7732C45.562 47.9481 45.2494 48.0604 45.0994 47.9729C44.9871 47.9105 45.237 47.6729 45.237 47.6729C45.237 47.6729 46.9741 45.8106 47.6617 44.9603C48.0616 44.4606 48.5239 43.873 49.024 43.2233C49.024 43.2854 49.0362 43.3484 49.0362 43.423C49.0242 45.6606 46.8744 47.1733 45.8992 47.7732ZM56.5986 45.3357C56.3487 45.1607 56.3859 44.5733 57.2234 42.7482C57.5485 42.0357 58.2986 40.836 59.5982 39.6861C59.7483 40.1609 59.8356 40.6108 59.8356 41.0357C59.8229 43.8481 57.8109 44.8981 56.5986 45.3357Z" fill="white"/>
</svg>