<svg xmlns="http://www.w3.org/2000/svg" width="115" height="50" viewBox="0 0 115 50" fill="none">
  <path d="M77.3864 0L77.0284 1.86617C76.4748 5.40282 76.6753 6.41466 78.193 7.72718L79.6583 8.93948L78.1405 15.7073C77.2337 19.7451 76.1216 23.1291 75.4152 24.2411C74.8091 25.2005 74.1027 26.6132 73.95 27.3721C73.697 28.2789 72.8379 29.1905 71.5254 29.9971C70.3656 30.6558 68.089 32.4217 66.4758 33.8392C65.1871 34.999 64.2993 35.7102 63.8173 36.0157L62.2423 37.2614C61.7363 38.0727 61.45 38.7266 61.3402 39.223C61.2304 39.7337 61.2925 40.0725 61.4548 40.3207C61.6123 40.5594 61.8843 40.7264 62.2566 40.8314C62.6973 40.9347 63.1509 40.9717 63.6025 40.9412C64.6242 40.8714 65.6355 40.6922 66.6189 40.4066C66.953 40.316 67.2155 40.23 67.4446 40.1537C67.7978 39.7194 68.614 38.8984 70.0601 37.4714C73.8975 33.6865 75.3627 31.6151 73.8497 32.1735C73.2913 32.374 73.5443 31.8681 74.5036 30.8562C76.5273 28.8851 77.6871 25.9068 80.1117 16.5664C82.0304 9.19244 82.0303 9.08744 83.4431 9.08744C84.1065 9.08744 85.9822 9.20198 85.9822 9.20198V0H81.6772H77.3864ZM95.7092 15.106C95.4038 15.106 94.8979 15.5641 94.5972 16.0701C94.0435 16.9769 94.6974 17.5305 103.031 22.7329C107.98 25.8686 111.97 28.5414 111.87 28.7467C111.77 28.8946 107.727 31.5244 102.883 34.5552C94.0913 40.0057 94.0435 40.0582 94.8501 41.1703C95.862 42.4828 94.8501 42.9362 106.262 35.8152L114.548 30.5126V26.5225L105.303 20.8142C100.305 17.6833 95.9622 15.1585 95.7092 15.106ZM18.9385 15.6644C18.6856 15.6644 14.3423 18.2417 9.34517 21.3202L0 27.0284V31.0185L9.29267 36.827C14.4473 40.0057 18.7906 42.6355 18.991 42.6355C19.1915 42.6355 19.5972 42.1774 20.0029 41.6237C20.609 40.6644 20.0983 40.2587 11.5645 34.8559C3.43643 29.7537 2.57732 29.0473 3.3887 28.4937C3.89462 28.1405 7.73196 25.7636 11.8748 23.1911C21.3202 17.3826 20.8142 17.7835 20.0554 16.5712C19.7547 16.0701 19.244 15.6166 18.9433 15.6644H18.9385ZM60.3856 15.7742C58.992 15.7646 55.9947 17.8885 47.0218 25.2148C46.6352 26.1359 46.6018 26.7707 46.7783 27.1812C46.8929 27.4628 47.1029 27.6585 47.394 27.8016C47.6804 27.9448 48.0527 28.0307 48.4632 28.0641C49.2793 28.1357 50.2434 28.0069 51.0214 27.8541L51.5464 27.7348C51.7261 27.4938 51.9621 27.3005 52.2337 27.1716C52.7873 26.8662 55.1117 24.747 57.436 22.4752C61.5263 18.3324 62.4857 16.4614 60.82 15.8553C60.6833 15.8009 60.5327 15.7734 60.3856 15.7742ZM70.8667 18.6522C69.6401 18.6856 67.4303 20.1079 63.6455 23.1291C61.7459 24.6707 60.5431 25.5011 59.8988 25.673L57.3979 27.6489C56.4576 29.3671 56.3192 30.4315 56.5674 31.0185C56.6295 31.1633 56.7197 31.2944 56.8327 31.4042C56.9458 31.5139 57.0795 31.6002 57.226 31.6581C57.5907 31.8021 57.9795 31.875 58.3715 31.8728C59.3083 31.8629 60.2395 31.7264 61.1397 31.4672C61.6089 31.3413 62.0723 31.1947 62.5286 31.0281L62.667 30.9708L62.92 30.8371C63.3973 30.2215 64.495 29.0617 65.8696 27.7253C70.2129 23.5347 72.4322 20.5565 71.9788 19.4444C71.7736 18.9051 71.4204 18.6331 70.8667 18.6522ZM59.2974 23.8068C58.9442 23.845 58.152 24.4559 56.7249 25.7064C54.663 27.5296 52.415 28.5796 51.6371 28.1119C51.4563 28.1527 51.2749 28.1909 51.093 28.2264C50.3007 28.3839 49.3127 28.5128 48.4297 28.4412C48.0137 28.416 47.6059 28.3141 47.227 28.1405C46.8696 27.9771 46.5843 27.6885 46.4252 27.3291C46.2486 26.8996 46.2486 26.365 46.449 25.6825L43.3467 28.2312L36.3259 34.0397V43.4565L59.3308 25.3341C59.3264 25.1357 59.3521 24.9377 59.4072 24.747C59.5838 24.1075 59.5743 23.7829 59.2974 23.8116V23.8068ZM69.1963 26.8566C68.8478 26.8566 68.2656 27.3482 67.3349 28.3362C66.0701 29.6869 64.0798 30.9947 63.025 31.2619L62.8627 31.3478C62.6896 31.4193 62.5145 31.4862 62.3377 31.5483C62.0514 31.6438 61.6791 31.7583 61.2495 31.8728C60.3904 32.1067 59.3213 32.3215 58.3667 32.2976C57.9167 32.2971 57.471 32.2095 57.0542 32.0399C56.6613 31.878 56.3465 31.57 56.176 31.1808C55.8992 30.5174 56.009 29.5867 56.6151 28.2646L36.3211 44.2488V50H45.2367L64.1466 35.147C64.6382 34.6029 65.378 33.8583 66.3755 32.9276C69.0483 30.4506 69.6544 29.5962 69.6544 28.3314C69.6544 27.3482 69.5447 26.8518 69.1963 26.8518V26.8566ZM73.697 36.1636L72.079 37.7768C71.1722 38.6359 69.5542 39.6955 68.4469 40.1489L68.2274 40.2444L68.2131 40.2682L68.1653 40.316C68.1224 40.3494 68.1033 40.3541 68.0699 40.3685C67.6278 40.5358 67.1788 40.6839 66.7239 40.8123C65.7127 41.1067 64.6725 41.2907 63.6216 41.3612C63.1247 41.3931 62.6259 41.3496 62.142 41.2323C61.7221 41.1399 61.3514 40.895 61.1016 40.5451C60.8725 40.1919 60.8056 39.7194 60.9345 39.1371C61.037 38.7225 61.1893 38.3219 61.3879 37.9439L46.1292 50H66.4232L68.8478 47.2222C72.1793 43.3372 73.697 40.5594 73.697 38.1825V36.1636Z" fill="white"/>
</svg>