<svg xmlns="http://www.w3.org/2000/svg" width="60" height="61" viewBox="0 0 60 61" fill="none">
  <path d="M3.96171 30.1785C11.6015 30.1784 19.2414 30.1783 26.8812 30.1782C31.5404 30.1781 34.7432 31.0696 34.7842 36.4037C34.8112 39.9202 34.7689 43.4391 34.7591 46.9556C34.7519 49.5375 35.4197 51.1161 31.8997 52.2394C30.7403 52.6094 28.7839 52.2353 27.5575 52.2337C23.9399 52.229 20.3191 52.1811 16.7018 52.2195C10.9915 52.2801 10.2997 55.1572 5.69521 58.3182C6.36471 58.7024 7.0342 59.0865 7.7037 59.4707C7.66827 55.3465 8.2958 54.4912 5.41155 52.4C3.16989 50.7748 3.51982 51.0874 3.02211 48.3585C2.711 46.6527 3.02108 44.6408 3.02061 42.9161C3.0203 41.7951 2.78155 30.1979 3.62286 30.2562C5.33751 30.3749 5.33012 27.7048 3.62286 27.5866C1.40402 27.4329 0.783767 28.5686 0.395378 30.5881C-0.467268 35.0736 0.350351 40.5162 0.35162 45.0931C0.352268 47.4316 -0.546983 51.76 1.16343 53.7958C2.15435 54.9752 2.799 54.236 3.67515 55.0811C5.21736 56.5688 5.01471 57.2122 5.03411 59.4707C5.0423 60.4236 6.18385 61.2128 7.0426 60.6233C8.54367 59.5928 9.81142 58.2853 11.2748 57.2393C13.7821 55.4473 15.6976 55.0898 18.8729 54.8919C23.5063 54.6031 28.7961 55.7573 33.3539 54.8294C39.1154 53.6564 37.4276 47.3526 37.4404 42.7402C37.4518 38.6357 39.605 28.8724 34.1119 27.5562C29.9069 26.5486 24.293 27.5086 20.0054 27.5087C14.6575 27.5088 9.30959 27.5089 3.96171 27.5089C2.24396 27.509 2.24111 30.1785 3.96171 30.1785Z" fill="white"/>
  <path d="M7.22489 37.4606C14.6733 37.501 22.1218 37.5413 29.5702 37.5817C31.2883 37.591 31.2904 34.9214 29.5702 34.9121C22.1218 34.8717 14.6733 34.8314 7.22489 34.791C5.50679 34.7817 5.50474 37.4513 7.22489 37.4606Z" fill="white"/>
  <path d="M7.02765 42.613C14.9046 42.6373 22.7816 42.6617 30.6585 42.6861C32.3765 42.6914 32.3789 40.0218 30.6585 40.0165C22.7816 39.9921 14.9046 39.9677 7.02765 39.9434C5.30968 39.9381 5.3073 42.6076 7.02765 42.613Z" fill="white"/>
  <path d="M7.42217 48.4029C14.9366 48.3688 22.451 48.3346 29.9653 48.3005C31.6827 48.2927 31.6863 45.6231 29.9653 45.6309C22.451 45.665 14.9366 45.6992 7.42217 45.7334C5.70479 45.7412 5.70127 48.4108 7.42217 48.4029Z" fill="white"/>
  <path d="M33.4265 3.90653C38.4678 3.88289 43.5091 3.85925 48.5504 3.8356C50.8128 3.82499 54.2506 3.01594 55.8731 4.68739C57.456 6.31801 56.7126 9.53803 56.7117 11.7377C56.7109 13.7907 56.7686 15.8534 56.7094 17.9059C56.8026 19.0052 56.7465 20.0943 56.5411 21.1731C55.9759 21.147 55.4476 21.2534 54.9562 21.4922C52.6374 23.9131 53.9274 23.8708 53.0442 28.014C53.6978 27.7481 54.3514 27.4822 55.005 27.2163C53.0387 25.767 52.387 22.9816 50.3684 21.7568C48.4 20.5625 45.2126 21.1672 43.0926 21.1745C39.8358 21.1858 33.2683 22.517 31.6433 18.7165C30.7999 16.7439 31.2278 4.00042 33.7211 3.86866C35.4302 3.77835 35.4408 1.1082 33.7211 1.19907C30.7195 1.35768 29.2111 2.28065 28.9003 5.40392C28.5759 8.663 28.9373 12.1125 28.9553 15.3884C28.9661 17.3424 28.5614 19.7637 29.5602 21.5747C31.318 24.7618 35.6542 23.8699 38.7369 23.8592C42.749 23.8453 47.0932 22.8489 50.1695 25.8451C51.4255 27.0684 52.1651 28.4214 53.6576 29.5214C54.3344 30.0203 55.4516 29.5064 55.6184 28.7237C55.8173 27.7907 55.777 26.1421 56.0991 25.2879C56.6772 23.7553 56.5659 24.0114 58.3974 23.3051C58.9542 23.0903 59.3771 22.6475 59.3774 22.018C59.3792 17.2222 59.4491 12.4211 59.3829 7.62563C59.3563 5.70079 59.7258 3.27872 58.0098 1.88816C55.7407 0.0494467 51.0881 1.15411 48.5504 1.16601C43.5091 1.18965 38.4678 1.2133 33.4265 1.23694C31.7092 1.245 31.7056 3.9146 33.4265 3.90653Z" fill="white"/>
  <path d="M42.2812 9.66273C42.2355 8.23627 43.7722 7.69838 44.5941 8.88381C45.0477 9.5381 44.5684 10.3346 44.1789 10.9638C43.3514 12.3008 43.094 13.4875 42.8521 15.0476C42.5915 16.7283 45.1634 17.4525 45.4263 15.7573C45.5682 14.8425 45.6086 13.8258 46.0302 12.9977C46.4348 12.2029 46.9885 11.561 47.2552 10.6862C47.6959 9.24088 47.5402 8.08295 46.4818 6.99613C45.3574 5.84158 43.7716 5.0267 42.1735 5.6792C40.5407 6.3459 39.5566 7.94601 39.6116 9.66273C39.6665 11.3764 42.3363 11.3839 42.2812 9.66273Z" fill="white"/>
  <path d="M43.4124 19.6969C45.1302 19.6969 45.133 17.0273 43.4124 17.0273C41.6947 17.0273 41.6918 19.6969 43.4124 19.6969Z" fill="white"/>
</svg>